<mxfile host="app.diagrams.net" modified="2023-03-06T12:20:59.645Z" agent="5.0 (Windows NT 10.0; Win64; x64) AppleWebKit/537.36 (KHTML, like Gecko) Chrome/110.0.0.0 Safari/537.36" etag="_sWeuWkIS7GTJwGHdctm" version="20.8.16" type="github">
  <diagram name="Page-1" id="2YBvvXClWsGukQMizWep">
    <mxGraphModel dx="1674" dy="768" grid="1" gridSize="10" guides="1" tooltips="1" connect="1" arrows="1" fold="1" page="1" pageScale="1" pageWidth="850" pageHeight="1100" math="0" shadow="0">
      <root>
        <mxCell id="0" />
        <mxCell id="1" parent="0" />
        <mxCell id="aM9ryv3xv72pqoxQDRHE-1" value="Thales" style="shape=umlLifeline;perimeter=lifelinePerimeter;whiteSpace=wrap;html=1;container=0;dropTarget=0;collapsible=0;recursiveResize=0;outlineConnect=0;portConstraint=eastwest;newEdgeStyle={&quot;edgeStyle&quot;:&quot;elbowEdgeStyle&quot;,&quot;elbow&quot;:&quot;vertical&quot;,&quot;curved&quot;:0,&quot;rounded&quot;:0};" parent="1" vertex="1">
          <mxGeometry x="235" y="50" width="100" height="300" as="geometry" />
        </mxCell>
        <mxCell id="aM9ryv3xv72pqoxQDRHE-2" value="" style="html=1;points=[];perimeter=orthogonalPerimeter;outlineConnect=0;targetShapes=umlLifeline;portConstraint=eastwest;newEdgeStyle={&quot;edgeStyle&quot;:&quot;elbowEdgeStyle&quot;,&quot;elbow&quot;:&quot;vertical&quot;,&quot;curved&quot;:0,&quot;rounded&quot;:0};" parent="aM9ryv3xv72pqoxQDRHE-1" vertex="1">
          <mxGeometry x="45" y="70" width="10" height="190" as="geometry" />
        </mxCell>
        <mxCell id="aM9ryv3xv72pqoxQDRHE-4" value="" style="html=1;points=[];perimeter=orthogonalPerimeter;outlineConnect=0;targetShapes=umlLifeline;portConstraint=eastwest;newEdgeStyle={&quot;edgeStyle&quot;:&quot;elbowEdgeStyle&quot;,&quot;elbow&quot;:&quot;vertical&quot;,&quot;curved&quot;:0,&quot;rounded&quot;:0};" parent="aM9ryv3xv72pqoxQDRHE-1" vertex="1">
          <mxGeometry x="50" y="120" width="10" height="80" as="geometry" />
        </mxCell>
        <mxCell id="aM9ryv3xv72pqoxQDRHE-5" value="Proxy" style="shape=umlLifeline;perimeter=lifelinePerimeter;whiteSpace=wrap;html=1;container=0;dropTarget=0;collapsible=0;recursiveResize=0;outlineConnect=0;portConstraint=eastwest;newEdgeStyle={&quot;edgeStyle&quot;:&quot;elbowEdgeStyle&quot;,&quot;elbow&quot;:&quot;vertical&quot;,&quot;curved&quot;:0,&quot;rounded&quot;:0};" parent="1" vertex="1">
          <mxGeometry x="415" y="50" width="100" height="300" as="geometry" />
        </mxCell>
        <mxCell id="aM9ryv3xv72pqoxQDRHE-6" value="" style="html=1;points=[];perimeter=orthogonalPerimeter;outlineConnect=0;targetShapes=umlLifeline;portConstraint=eastwest;newEdgeStyle={&quot;edgeStyle&quot;:&quot;elbowEdgeStyle&quot;,&quot;elbow&quot;:&quot;vertical&quot;,&quot;curved&quot;:0,&quot;rounded&quot;:0};" parent="aM9ryv3xv72pqoxQDRHE-5" vertex="1">
          <mxGeometry x="45" y="80" width="10" height="170" as="geometry" />
        </mxCell>
        <mxCell id="aM9ryv3xv72pqoxQDRHE-7" value="&lt;strong&gt;POST /notifyStandInProcess&lt;/strong&gt;" style="html=1;verticalAlign=bottom;endArrow=block;edgeStyle=elbowEdgeStyle;elbow=vertical;curved=0;rounded=0;" parent="1" source="aM9ryv3xv72pqoxQDRHE-2" target="aM9ryv3xv72pqoxQDRHE-6" edge="1">
          <mxGeometry relative="1" as="geometry">
            <mxPoint x="390" y="140" as="sourcePoint" />
            <Array as="points">
              <mxPoint x="375" y="130" />
            </Array>
            <mxPoint as="offset" />
          </mxGeometry>
        </mxCell>
        <mxCell id="aM9ryv3xv72pqoxQDRHE-8" value="return" style="html=1;verticalAlign=bottom;endArrow=open;dashed=1;endSize=8;edgeStyle=elbowEdgeStyle;elbow=vertical;curved=0;rounded=0;" parent="1" source="aM9ryv3xv72pqoxQDRHE-6" target="aM9ryv3xv72pqoxQDRHE-2" edge="1">
          <mxGeometry relative="1" as="geometry">
            <mxPoint x="390" y="215" as="targetPoint" />
            <Array as="points">
              <mxPoint x="390" y="290" />
            </Array>
          </mxGeometry>
        </mxCell>
        <mxCell id="aM9ryv3xv72pqoxQDRHE-9" value="targetServer" style="html=1;verticalAlign=bottom;endArrow=block;edgeStyle=elbowEdgeStyle;elbow=vertical;curved=0;rounded=0;" parent="1" source="aM9ryv3xv72pqoxQDRHE-6" target="0-ScdNJIP9ipMrZCg9KP-1" edge="1">
          <mxGeometry relative="1" as="geometry">
            <mxPoint x="370" y="170" as="sourcePoint" />
            <Array as="points" />
          </mxGeometry>
        </mxCell>
        <mxCell id="0-ScdNJIP9ipMrZCg9KP-1" value="TIG-audit" style="shape=umlLifeline;perimeter=lifelinePerimeter;whiteSpace=wrap;html=1;container=0;dropTarget=0;collapsible=0;recursiveResize=0;outlineConnect=0;portConstraint=eastwest;newEdgeStyle={&quot;edgeStyle&quot;:&quot;elbowEdgeStyle&quot;,&quot;elbow&quot;:&quot;vertical&quot;,&quot;curved&quot;:0,&quot;rounded&quot;:0};" vertex="1" parent="1">
          <mxGeometry x="585" y="50" width="100" height="300" as="geometry" />
        </mxCell>
        <mxCell id="0-ScdNJIP9ipMrZCg9KP-2" value="" style="html=1;points=[];perimeter=orthogonalPerimeter;outlineConnect=0;targetShapes=umlLifeline;portConstraint=eastwest;newEdgeStyle={&quot;edgeStyle&quot;:&quot;elbowEdgeStyle&quot;,&quot;elbow&quot;:&quot;vertical&quot;,&quot;curved&quot;:0,&quot;rounded&quot;:0};" vertex="1" parent="0-ScdNJIP9ipMrZCg9KP-1">
          <mxGeometry x="45" y="80" width="10" height="170" as="geometry" />
        </mxCell>
        <mxCell id="0-ScdNJIP9ipMrZCg9KP-3" value="Visa" style="shape=umlLifeline;perimeter=lifelinePerimeter;whiteSpace=wrap;html=1;container=0;dropTarget=0;collapsible=0;recursiveResize=0;outlineConnect=0;portConstraint=eastwest;newEdgeStyle={&quot;edgeStyle&quot;:&quot;elbowEdgeStyle&quot;,&quot;elbow&quot;:&quot;vertical&quot;,&quot;curved&quot;:0,&quot;rounded&quot;:0};" vertex="1" parent="1">
          <mxGeometry x="80" y="50" width="100" height="300" as="geometry" />
        </mxCell>
        <mxCell id="0-ScdNJIP9ipMrZCg9KP-4" value="" style="html=1;points=[];perimeter=orthogonalPerimeter;outlineConnect=0;targetShapes=umlLifeline;portConstraint=eastwest;newEdgeStyle={&quot;edgeStyle&quot;:&quot;elbowEdgeStyle&quot;,&quot;elbow&quot;:&quot;vertical&quot;,&quot;curved&quot;:0,&quot;rounded&quot;:0};" vertex="1" parent="0-ScdNJIP9ipMrZCg9KP-3">
          <mxGeometry x="45" y="70" width="10" height="190" as="geometry" />
        </mxCell>
        <mxCell id="0-ScdNJIP9ipMrZCg9KP-6" value="" style="html=1;points=[];perimeter=orthogonalPerimeter;outlineConnect=0;targetShapes=umlLifeline;portConstraint=eastwest;newEdgeStyle={&quot;edgeStyle&quot;:&quot;elbowEdgeStyle&quot;,&quot;elbow&quot;:&quot;vertical&quot;,&quot;curved&quot;:0,&quot;rounded&quot;:0};" vertex="1" parent="0-ScdNJIP9ipMrZCg9KP-3">
          <mxGeometry x="50" y="120" width="10" height="80" as="geometry" />
        </mxCell>
        <mxCell id="aM9ryv3xv72pqoxQDRHE-3" value="dispatch" style="html=1;verticalAlign=bottom;startArrow=oval;endArrow=block;startSize=8;edgeStyle=elbowEdgeStyle;elbow=vertical;curved=0;rounded=0;" parent="1" target="aM9ryv3xv72pqoxQDRHE-2" edge="1" source="0-ScdNJIP9ipMrZCg9KP-3">
          <mxGeometry x="0.0698" y="5" relative="1" as="geometry">
            <mxPoint x="220" y="120" as="sourcePoint" />
            <mxPoint as="offset" />
          </mxGeometry>
        </mxCell>
        <mxCell id="0-ScdNJIP9ipMrZCg9KP-7" value="standInd" style="text;html=1;align=center;verticalAlign=middle;resizable=0;points=[];autosize=1;strokeColor=none;fillColor=none;" vertex="1" parent="1">
          <mxGeometry x="195" y="195" width="70" height="30" as="geometry" />
        </mxCell>
        <mxCell id="0-ScdNJIP9ipMrZCg9KP-9" value="return" style="html=1;verticalAlign=bottom;endArrow=open;dashed=1;endSize=8;edgeStyle=elbowEdgeStyle;elbow=vertical;curved=0;rounded=0;" edge="1" parent="1" source="aM9ryv3xv72pqoxQDRHE-2">
          <mxGeometry relative="1" as="geometry">
            <mxPoint x="130" y="300" as="targetPoint" />
            <Array as="points">
              <mxPoint x="230" y="300" />
            </Array>
            <mxPoint x="300" y="300" as="sourcePoint" />
          </mxGeometry>
        </mxCell>
        <mxCell id="0-ScdNJIP9ipMrZCg9KP-10" value="return" style="html=1;verticalAlign=bottom;endArrow=open;dashed=1;endSize=8;edgeStyle=elbowEdgeStyle;elbow=vertical;curved=0;rounded=0;" edge="1" parent="1">
          <mxGeometry relative="1" as="geometry">
            <mxPoint x="470" y="270" as="targetPoint" />
            <Array as="points">
              <mxPoint x="560" y="270" />
            </Array>
            <mxPoint x="630" y="270" as="sourcePoint" />
          </mxGeometry>
        </mxCell>
        <mxCell id="0-ScdNJIP9ipMrZCg9KP-12" value="&lt;pre&gt;&lt;font face=&quot;Comic Sans MS&quot;&gt;{&lt;br&gt;&amp;nbsp; &quot;cipheredCardInfo&quot;: &quot;string&quot;,&lt;br&gt;&amp;nbsp; &quot;virtualCardId&quot;: &quot;string&quot;,&lt;br&gt;&amp;nbsp; &quot;tokenStorageId&quot;: &quot;string&quot;,&lt;br&gt;&amp;nbsp; &quot;deviceInformation&quot;: {&lt;br&gt;&amp;nbsp; &amp;nbsp; &quot;tokenStorageId&quot;: &quot;string&quot;,&lt;br&gt;&amp;nbsp; &amp;nbsp; &quot;tokenStorageType&quot;: &quot;string&quot;,&lt;br&gt;&amp;nbsp; &amp;nbsp; &quot;manufacturer&quot;: &quot;string&quot;,&lt;br&gt;&amp;nbsp; &amp;nbsp; &quot;brand&quot;: &quot;string&quot;,&lt;br&gt;&amp;nbsp; &amp;nbsp; &quot;model&quot;: &quot;string&quot;,&lt;br&gt;&amp;nbsp; &amp;nbsp; &quot;tac&quot;: &quot;string&quot;,&lt;br&gt;&amp;nbsp; &amp;nbsp; &quot;osVersion&quot;: &quot;string&quot;,&lt;br&gt;&amp;nbsp; &amp;nbsp; &quot;firmwareVersion&quot;: &quot;string&quot;,&lt;br&gt;&amp;nbsp; &amp;nbsp; &quot;phoneNumber&quot;: &quot;string&quot;,&lt;br&gt;&amp;nbsp; &amp;nbsp; &quot;fourLastDigitPhoneNumber&quot;: &quot;stri&quot;,&lt;br&gt;&amp;nbsp; &amp;nbsp; &quot;deviceName&quot;: &quot;string&quot;,&lt;br&gt;&amp;nbsp; &amp;nbsp; &quot;deviceId&quot;: &quot;string&quot;,&lt;br&gt;&amp;nbsp; &amp;nbsp; &quot;androidIdLastTwo&quot;: &quot;st&quot;,&lt;br&gt;&amp;nbsp; &amp;nbsp; &quot;deviceParentId&quot;: &quot;string&quot;,&lt;br&gt;&amp;nbsp; &amp;nbsp; &quot;language&quot;: &quot;str&quot;,&lt;br&gt;&amp;nbsp; &amp;nbsp; &quot;deviceStateFlags&quot;: &quot;st&quot;,&lt;br&gt;&amp;nbsp; &amp;nbsp; &quot;serialNumber&quot;: &quot;string&quot;,&lt;br&gt;&amp;nbsp; &amp;nbsp; &quot;timeZone&quot;: &quot;string&quot;,&lt;br&gt;&amp;nbsp; &amp;nbsp; &quot;timeZoneSetting&quot;: &quot;string&quot;,&lt;br&gt;&amp;nbsp; &amp;nbsp; &quot;simSerialNumber&quot;: &quot;string&quot;,&lt;br&gt;&amp;nbsp; &amp;nbsp; &quot;IMEI&quot;: &quot;string&quot;,&lt;br&gt;&amp;nbsp; &amp;nbsp; &quot;phoneLostTime&quot;: &quot;stri&quot;,&lt;br&gt;&amp;nbsp; &amp;nbsp; &quot;networkOperator&quot;: &quot;string&quot;,&lt;br&gt;&amp;nbsp; &amp;nbsp; &quot;networkType&quot;: &quot;string&quot;&lt;br&gt;&amp;nbsp; },&lt;br&gt;&amp;nbsp; &quot;isPrimary&quot;: true,&lt;br&gt;&amp;nbsp; &quot;enrollmentStep&quot;: &quot;string&quot;,&lt;br&gt;&amp;nbsp; &quot;status&quot;: &quot;string&quot;,&lt;br&gt;&amp;nbsp; &quot;tokenInfo&quot;: &quot;string&quot;,&lt;br&gt;&amp;nbsp; &quot;publicKeyIdentifier&quot;: &quot;string&quot;,&lt;br&gt;&amp;nbsp; &quot;walletProviderId&quot;: &quot;string&quot;,&lt;br&gt;&amp;nbsp; &quot;tokenRequestor&quot;: {&lt;br&gt;&amp;nbsp; &amp;nbsp; &quot;id&quot;: &quot;string&quot;,&lt;br&gt;&amp;nbsp; &amp;nbsp; &quot;originalTokenRequestorId&quot;: &quot;string&quot;,&lt;br&gt;&amp;nbsp; &amp;nbsp; &quot;walletId&quot;: &quot;string&quot;,&lt;br&gt;&amp;nbsp; &amp;nbsp; &quot;merchantId&quot;: &quot;string&quot;,&lt;br&gt;&amp;nbsp; &amp;nbsp; &quot;name&quot;: &quot;string&quot;,&lt;br&gt;&amp;nbsp; &amp;nbsp; &quot;tspId&quot;: &quot;string&quot;&lt;br&gt;&amp;nbsp; },&lt;br&gt;&amp;nbsp; &quot;walletCardRefId&quot;: &quot;string&quot;,&lt;br&gt;&amp;nbsp; &quot;source&quot;: &quot;string&quot;,&lt;br&gt;&amp;nbsp; &quot;cvvValidated&quot;: true,&lt;br&gt;&amp;nbsp; &quot;tokenAssuranceLevel&quot;: &quot;st&quot;&lt;br&gt;}&lt;/font&gt;&lt;/pre&gt;" style="text;html=1;strokeColor=none;fillColor=none;spacing=5;spacingTop=-20;whiteSpace=wrap;overflow=hidden;rounded=0;fontSize=6;fontFamily=Helvetica;" vertex="1" parent="1">
          <mxGeometry x="300" y="130" width="190" height="120" as="geometry" />
        </mxCell>
        <mxCell id="0-ScdNJIP9ipMrZCg9KP-53" style="edgeStyle=orthogonalEdgeStyle;rounded=0;orthogonalLoop=1;jettySize=auto;html=1;exitX=1;exitY=0.5;exitDx=0;exitDy=0;entryX=0;entryY=0.5;entryDx=0;entryDy=0;fontFamily=Helvetica;fontSize=6;" edge="1" parent="1" source="0-ScdNJIP9ipMrZCg9KP-13" target="0-ScdNJIP9ipMrZCg9KP-25">
          <mxGeometry relative="1" as="geometry" />
        </mxCell>
        <mxCell id="0-ScdNJIP9ipMrZCg9KP-13" value="descripdataCard" style="whiteSpace=wrap;html=1;fontFamily=Comic Sans MS;fontSize=6;" vertex="1" parent="1">
          <mxGeometry x="100" y="420" width="60" height="70" as="geometry" />
        </mxCell>
        <mxCell id="0-ScdNJIP9ipMrZCg9KP-19" style="edgeStyle=orthogonalEdgeStyle;rounded=0;orthogonalLoop=1;jettySize=auto;html=1;entryX=0.5;entryY=0;entryDx=0;entryDy=0;fontFamily=Helvetica;fontSize=6;startArrow=none;" edge="1" parent="1" source="0-ScdNJIP9ipMrZCg9KP-21" target="0-ScdNJIP9ipMrZCg9KP-13">
          <mxGeometry relative="1" as="geometry">
            <Array as="points">
              <mxPoint x="130" y="380" />
            </Array>
          </mxGeometry>
        </mxCell>
        <mxCell id="0-ScdNJIP9ipMrZCg9KP-15" value="&lt;div style=&quot;box-sizing: border-box; border: 0 solid var(--color-border,currentColor); --tw-shadow:0 0 #0000; --tw-ring-inset:var(--tw-empty, ); --tw-ring-offset-width:0px; --tw-ring-offset-color:#fff; --tw-ring-color:rgba(147,197,253,0.5); --tw-ring-offset-shadow:0 0 #0000; --tw-ring-shadow:0 0 #0000; font-family: var(--font-mono); font-weight: 600; margin-right: 8px; color: rgb(38, 38, 38); font-size: 12px; text-align: start; background-color: rgb(255, 255, 255);&quot; class=&quot;sl-font-mono sl-font-semibold sl-mr-2&quot;&gt;issuerCardRefId&lt;/div&gt;" style="text;html=1;align=center;verticalAlign=middle;resizable=0;points=[];autosize=1;strokeColor=none;fillColor=none;fontSize=6;fontFamily=Helvetica;" vertex="1" parent="1">
          <mxGeometry x="500" y="280" width="120" height="30" as="geometry" />
        </mxCell>
        <mxCell id="0-ScdNJIP9ipMrZCg9KP-16" value="200" style="text;html=1;align=center;verticalAlign=middle;resizable=0;points=[];autosize=1;strokeColor=none;fillColor=none;fontSize=6;fontFamily=Helvetica;" vertex="1" parent="1">
          <mxGeometry x="480" y="285" width="30" height="20" as="geometry" />
        </mxCell>
        <mxCell id="0-ScdNJIP9ipMrZCg9KP-17" value="400" style="text;html=1;align=center;verticalAlign=middle;resizable=0;points=[];autosize=1;strokeColor=none;fillColor=none;fontSize=6;fontFamily=Helvetica;" vertex="1" parent="1">
          <mxGeometry x="480" y="310" width="30" height="20" as="geometry" />
        </mxCell>
        <mxCell id="0-ScdNJIP9ipMrZCg9KP-18" value="500" style="text;html=1;align=center;verticalAlign=middle;resizable=0;points=[];autosize=1;strokeColor=none;fillColor=none;fontSize=6;fontFamily=Helvetica;" vertex="1" parent="1">
          <mxGeometry x="480" y="330" width="30" height="20" as="geometry" />
        </mxCell>
        <mxCell id="0-ScdNJIP9ipMrZCg9KP-22" value="" style="edgeStyle=orthogonalEdgeStyle;rounded=0;orthogonalLoop=1;jettySize=auto;html=1;entryX=1;entryY=0.5;entryDx=0;entryDy=0;fontFamily=Helvetica;fontSize=6;endArrow=none;entryPerimeter=0;" edge="1" parent="1" source="0-ScdNJIP9ipMrZCg9KP-1" target="0-ScdNJIP9ipMrZCg9KP-21">
          <mxGeometry relative="1" as="geometry">
            <mxPoint x="480" y="305" as="sourcePoint" />
            <mxPoint x="130" y="430" as="targetPoint" />
            <Array as="points">
              <mxPoint x="635" y="380" />
              <mxPoint x="310" y="380" />
            </Array>
          </mxGeometry>
        </mxCell>
        <mxCell id="0-ScdNJIP9ipMrZCg9KP-21" value="" style="strokeWidth=2;html=1;shape=mxgraph.flowchart.start_2;whiteSpace=wrap;fontFamily=Helvetica;fontSize=6;" vertex="1" parent="1">
          <mxGeometry x="270" y="370" width="40" height="40" as="geometry" />
        </mxCell>
        <mxCell id="0-ScdNJIP9ipMrZCg9KP-52" style="edgeStyle=orthogonalEdgeStyle;rounded=0;orthogonalLoop=1;jettySize=auto;html=1;entryX=0.028;entryY=-0.2;entryDx=0;entryDy=0;entryPerimeter=0;fontFamily=Helvetica;fontSize=6;" edge="1" parent="1" source="0-ScdNJIP9ipMrZCg9KP-25" target="0-ScdNJIP9ipMrZCg9KP-33">
          <mxGeometry relative="1" as="geometry" />
        </mxCell>
        <mxCell id="0-ScdNJIP9ipMrZCg9KP-25" value="Extract Data:&amp;nbsp;&lt;br&gt;enrollmentStep&lt;br&gt;virtualCardId&lt;br&gt;status" style="whiteSpace=wrap;html=1;fontSize=6;strokeWidth=2;fontFamily=Helvetica;" vertex="1" parent="1">
          <mxGeometry x="210" y="430" width="70" height="60" as="geometry" />
        </mxCell>
        <mxCell id="0-ScdNJIP9ipMrZCg9KP-27" value="&#xa;&lt;span style=&quot;color: rgb(0, 0, 0); font-family: &amp;quot;Comic Sans MS&amp;quot;; font-size: 6px; font-style: normal; font-variant-ligatures: normal; font-variant-caps: normal; font-weight: 400; letter-spacing: normal; orphans: 2; text-align: center; text-indent: 0px; text-transform: none; widows: 2; word-spacing: 0px; -webkit-text-stroke-width: 0px; background-color: rgb(251, 251, 251); text-decoration-thickness: initial; text-decoration-style: initial; text-decoration-color: initial; float: none; display: inline !important;&quot;&gt;cipheredCardInfo&lt;/span&gt;&#xa;&#xa;" style="text;html=1;align=center;verticalAlign=middle;resizable=0;points=[];autosize=1;strokeColor=none;fillColor=none;fontSize=6;fontFamily=Helvetica;" vertex="1" parent="1">
          <mxGeometry x="140" y="380" width="70" height="40" as="geometry" />
        </mxCell>
        <mxCell id="0-ScdNJIP9ipMrZCg9KP-28" value="x-correlation-id&lt;pre&gt;x-issuer-id&lt;/pre&gt;&lt;div&gt;&lt;br&gt;&lt;/div&gt;" style="text;html=1;align=center;verticalAlign=middle;resizable=0;points=[];autosize=1;strokeColor=none;fillColor=none;fontSize=6;fontFamily=Helvetica;" vertex="1" parent="1">
          <mxGeometry x="65" y="350" width="60" height="50" as="geometry" />
        </mxCell>
        <mxCell id="0-ScdNJIP9ipMrZCg9KP-29" value="TBL_STATUS_APROV" style="shape=table;startSize=30;container=1;collapsible=0;childLayout=tableLayout;fixedRows=1;rowLines=0;fontStyle=0;strokeColor=default;fontSize=16;fontFamily=Helvetica;" vertex="1" parent="1">
          <mxGeometry x="335" y="425" width="250" height="150" as="geometry" />
        </mxCell>
        <mxCell id="0-ScdNJIP9ipMrZCg9KP-30" value="" style="shape=tableRow;horizontal=0;startSize=0;swimlaneHead=0;swimlaneBody=0;top=0;left=0;bottom=0;right=0;collapsible=0;dropTarget=0;fillColor=none;points=[[0,0.5],[1,0.5]];portConstraint=eastwest;strokeColor=inherit;fontSize=16;fontFamily=Helvetica;" vertex="1" parent="0-ScdNJIP9ipMrZCg9KP-29">
          <mxGeometry y="30" width="250" height="20" as="geometry" />
        </mxCell>
        <mxCell id="0-ScdNJIP9ipMrZCg9KP-31" value="1pk" style="shape=partialRectangle;html=1;whiteSpace=wrap;connectable=0;fillColor=none;top=0;left=0;bottom=0;right=0;overflow=hidden;pointerEvents=1;strokeColor=inherit;fontSize=16;fontFamily=Helvetica;" vertex="1" parent="0-ScdNJIP9ipMrZCg9KP-30">
          <mxGeometry width="35" height="20" as="geometry">
            <mxRectangle width="35" height="20" as="alternateBounds" />
          </mxGeometry>
        </mxCell>
        <mxCell id="0-ScdNJIP9ipMrZCg9KP-32" value="x-correlation-id&lt;pre style=&quot;border-color: var(--border-color);&quot;&gt;x-issuer-id&lt;/pre&gt;&lt;div style=&quot;border-color: var(--border-color);&quot;&gt;&lt;br style=&quot;border-color: var(--border-color); font-size: 6px; text-align: center;&quot;&gt;&lt;/div&gt;" style="shape=partialRectangle;html=1;whiteSpace=wrap;connectable=0;fillColor=none;top=0;left=0;bottom=0;right=0;align=left;spacingLeft=6;overflow=hidden;strokeColor=inherit;fontSize=16;fontFamily=Helvetica;" vertex="1" parent="0-ScdNJIP9ipMrZCg9KP-30">
          <mxGeometry x="35" width="215" height="20" as="geometry">
            <mxRectangle width="215" height="20" as="alternateBounds" />
          </mxGeometry>
        </mxCell>
        <mxCell id="0-ScdNJIP9ipMrZCg9KP-33" value="" style="shape=tableRow;horizontal=0;startSize=0;swimlaneHead=0;swimlaneBody=0;top=0;left=0;bottom=0;right=0;collapsible=0;dropTarget=0;fillColor=none;points=[[0,0.5],[1,0.5]];portConstraint=eastwest;strokeColor=inherit;fontSize=16;fontFamily=Helvetica;" vertex="1" parent="0-ScdNJIP9ipMrZCg9KP-29">
          <mxGeometry y="50" width="250" height="20" as="geometry" />
        </mxCell>
        <mxCell id="0-ScdNJIP9ipMrZCg9KP-34" value="2pk" style="shape=partialRectangle;html=1;whiteSpace=wrap;connectable=0;fillColor=none;top=0;left=0;bottom=0;right=0;overflow=hidden;strokeColor=inherit;fontSize=16;fontFamily=Helvetica;" vertex="1" parent="0-ScdNJIP9ipMrZCg9KP-33">
          <mxGeometry width="35" height="20" as="geometry">
            <mxRectangle width="35" height="20" as="alternateBounds" />
          </mxGeometry>
        </mxCell>
        <mxCell id="0-ScdNJIP9ipMrZCg9KP-35" value="x-issuer-id" style="shape=partialRectangle;html=1;whiteSpace=wrap;connectable=0;fillColor=none;top=0;left=0;bottom=0;right=0;align=left;spacingLeft=6;overflow=hidden;strokeColor=inherit;fontSize=16;fontFamily=Helvetica;" vertex="1" parent="0-ScdNJIP9ipMrZCg9KP-33">
          <mxGeometry x="35" width="215" height="20" as="geometry">
            <mxRectangle width="215" height="20" as="alternateBounds" />
          </mxGeometry>
        </mxCell>
        <mxCell id="0-ScdNJIP9ipMrZCg9KP-36" value="" style="shape=tableRow;horizontal=0;startSize=0;swimlaneHead=0;swimlaneBody=0;top=0;left=0;bottom=0;right=0;collapsible=0;dropTarget=0;fillColor=none;points=[[0,0.5],[1,0.5]];portConstraint=eastwest;strokeColor=inherit;fontSize=16;fontFamily=Helvetica;" vertex="1" parent="0-ScdNJIP9ipMrZCg9KP-29">
          <mxGeometry y="70" width="250" height="20" as="geometry" />
        </mxCell>
        <mxCell id="0-ScdNJIP9ipMrZCg9KP-37" value="" style="shape=partialRectangle;html=1;whiteSpace=wrap;connectable=0;fillColor=none;top=0;left=0;bottom=0;right=0;overflow=hidden;strokeColor=inherit;fontSize=16;fontFamily=Helvetica;" vertex="1" parent="0-ScdNJIP9ipMrZCg9KP-36">
          <mxGeometry width="35" height="20" as="geometry">
            <mxRectangle width="35" height="20" as="alternateBounds" />
          </mxGeometry>
        </mxCell>
        <mxCell id="0-ScdNJIP9ipMrZCg9KP-38" value="cardID" style="shape=partialRectangle;html=1;whiteSpace=wrap;connectable=0;fillColor=none;top=0;left=0;bottom=0;right=0;align=left;spacingLeft=6;overflow=hidden;strokeColor=inherit;fontSize=16;fontFamily=Helvetica;" vertex="1" parent="0-ScdNJIP9ipMrZCg9KP-36">
          <mxGeometry x="35" width="215" height="20" as="geometry">
            <mxRectangle width="215" height="20" as="alternateBounds" />
          </mxGeometry>
        </mxCell>
        <mxCell id="0-ScdNJIP9ipMrZCg9KP-42" value="" style="shape=tableRow;horizontal=0;startSize=0;swimlaneHead=0;swimlaneBody=0;top=0;left=0;bottom=0;right=0;collapsible=0;dropTarget=0;fillColor=none;points=[[0,0.5],[1,0.5]];portConstraint=eastwest;strokeColor=inherit;fontSize=16;fontFamily=Helvetica;" vertex="1" parent="1">
          <mxGeometry x="340" y="545" width="250" height="30" as="geometry" />
        </mxCell>
        <mxCell id="0-ScdNJIP9ipMrZCg9KP-49" value="enrollmentStep" style="shape=partialRectangle;html=1;whiteSpace=wrap;connectable=0;fillColor=none;top=0;left=0;bottom=0;right=0;align=left;spacingLeft=6;overflow=hidden;strokeColor=inherit;fontSize=16;fontFamily=Helvetica;" vertex="1" parent="1">
          <mxGeometry x="370" y="514" width="205" height="20" as="geometry">
            <mxRectangle width="205" height="20" as="alternateBounds" />
          </mxGeometry>
        </mxCell>
        <mxCell id="0-ScdNJIP9ipMrZCg9KP-50" value="virtualCardId" style="shape=partialRectangle;html=1;whiteSpace=wrap;connectable=0;fillColor=none;top=0;left=0;bottom=0;right=0;align=left;spacingLeft=6;overflow=hidden;strokeColor=inherit;fontSize=16;fontFamily=Helvetica;" vertex="1" parent="1">
          <mxGeometry x="370" y="534" width="205" height="20" as="geometry">
            <mxRectangle width="205" height="20" as="alternateBounds" />
          </mxGeometry>
        </mxCell>
        <mxCell id="0-ScdNJIP9ipMrZCg9KP-51" value="status" style="shape=partialRectangle;html=1;whiteSpace=wrap;connectable=0;fillColor=none;top=0;left=0;bottom=0;right=0;align=left;spacingLeft=6;overflow=hidden;strokeColor=inherit;fontSize=16;fontFamily=Helvetica;" vertex="1" parent="1">
          <mxGeometry x="370" y="552" width="205" height="20" as="geometry">
            <mxRectangle width="205" height="20" as="alternateBounds" />
          </mxGeometry>
        </mxCell>
      </root>
    </mxGraphModel>
  </diagram>
</mxfile>
